<svg xmlns="http://www.w3.org/2000/svg" viewBox="0 0 22 22">
  <defs id="defs3051">
    <style type="text/css" id="current-color-scheme">
      .ColorScheme-Text {
        color:#232629;
      }
    </style>
  </defs>
  <path style="fill:currentColor;fill-opacity:1;stroke:none"
    d="m 19,19 v -3 h -3 v 3 z m -4,0 V 18 H 6 L 5,19 Z M 3.707031,19 19,3.707031 18.292969,3 3,18.292969 Z M 15,17 V 16 H 11 10 8.830078 l -1,1 z m 4,-5 V 11 10 9 h -3 v 1 1 1 z m -4,0 v -1 h -2 l -1,1 z M 8,12 9,11 H 5 v 1 z m 2,-2 1,-1 H 9 v 1 z m 3.169922,-3 1,-1 H 5 v 1 h 6 1 z M 15,5 16,4 H 8 V 5 Z M 5,4 V 3 H 3 v 1 z"
	  class="ColorScheme-Text" />
</svg>
